HIERARCHY
ROOT Hips
{
	OFFSET	0.000000	0.000000	0.000000
	CHANNELS 6 Xposition Yposition Zposition Zrotation Xrotation Yrotation
	JOINT LeftUpLeg
	{
		OFFSET	12.830505	-7.049846	-1.643436
		CHANNELS 3 Zrotation Xrotation Yrotation
		JOINT LeftLeg
		{
			OFFSET	0.620834	-39.957500	-1.919341
			CHANNELS 3 Zrotation Xrotation Yrotation
			JOINT LeftFoot
			{
				OFFSET	-0.413890	-44.704761	-3.870325
				CHANNELS 3 Zrotation Xrotation Yrotation
				JOINT LeftFootHeel
				{
					OFFSET	0.717369	-8.904096	-5.182565
					CHANNELS 3 Zrotation Xrotation Yrotation
					End Site
					{
						OFFSET	0.332974	0.000000	18.777164
					}
				}
			}
		}
	}
	JOINT RightUpLeg
	{
		OFFSET	-12.830505	-7.049846	-1.643436
		CHANNELS 3 Zrotation Xrotation Yrotation
		JOINT RightLeg
		{
			OFFSET	-0.620834	-39.957500	-1.919341
			CHANNELS 3 Zrotation Xrotation Yrotation
			JOINT RightFoot
			{
				OFFSET	0.413890	-44.704761	-3.870325
				CHANNELS 3 Zrotation Xrotation Yrotation
				JOINT RightFootHeel
				{
					OFFSET	-0.717369	-8.904096	-5.182565
					CHANNELS 3 Zrotation Xrotation Yrotation
					End Site
					{
						OFFSET	-0.332974	0.000000	18.777164
					}
				}
			}
		}
	}
	JOINT Spine
	{
		OFFSET	0.000000	12.498170	1.820647
		CHANNELS 3 Zrotation Xrotation Yrotation
		JOINT Spine1
		{
			OFFSET	0.000000	7.620000	0.000000
			CHANNELS 3 Zrotation Xrotation Yrotation
			JOINT LeftShoulder
			{
				OFFSET	9.167800	29.136339	-5.551221
				CHANNELS 3 Zrotation Xrotation Yrotation
				JOINT LeftArm
				{
					OFFSET	12.133453	-3.880866	1.461963
					CHANNELS 3 Zrotation Xrotation Yrotation
					JOINT LeftForeArm
					{
						OFFSET	2.507115	-31.664908	-1.069404
						CHANNELS 3 Zrotation Xrotation Yrotation
						JOINT LeftHand
						{
							OFFSET	4.116172	-24.512624	5.009439
							CHANNELS 3 Zrotation Xrotation Yrotation
							End Site
							{
								OFFSET	-0.213136	-10.931856	2.182134
							}
						}
					}
				}
			}
			JOINT RightShoulder
			{
				OFFSET	-9.167800	29.136339	-5.551221
				CHANNELS 3 Zrotation Xrotation Yrotation
				JOINT RightArm
				{
					OFFSET	-12.133453	-3.880866	1.461963
					CHANNELS 3 Zrotation Xrotation Yrotation
					JOINT RightForeArm
					{
						OFFSET	-2.507115	-31.664908	-1.069404
						CHANNELS 3 Zrotation Xrotation Yrotation
						JOINT RightHand
						{
							OFFSET	-4.116172	-24.512624	5.009439
							CHANNELS 3 Zrotation Xrotation Yrotation
							End Site
							{
								OFFSET	0.213136	-10.931856	2.182134
							}
						}
					}
				}
			}
			JOINT Neck
			{
				OFFSET	0.000000	32.926272	-3.635654
				CHANNELS 3 Zrotation Xrotation Yrotation
				JOINT Head
				{
					OFFSET	0.000000	12.481178	4.646143
					CHANNELS 3 Zrotation Xrotation Yrotation
					End Site
					{
						OFFSET	0.000000	17.715204	-2.222063
					}
				}
			}
		}
	}
}
MOTION
Frames:    15
Frame Time: 0.016667
0.000000	103.161269	0.000000	-0.099223	0.581618	0.267938	0.053052	-0.583861	-0.390343	0.043440	0.002080	0.122956	-0.000001	0.000002	0.000000	0.	0.	0.	0.102439	-0.591199	-0.216551	0.017596	-0.004320	0.186642	-0.023518	0.013499	-0.236975	0.	0.	0.	0.096507	-0.582076	-0.266944	-0.507550	0.465697	0.143825	0.542931	-0.145251	-0.080665	-0.489212	0.231186	0.338855	0.342420	-0.631816	-0.158916	0.594695	1.544451	-0.584970	0.273340	-0.052669	-0.147699	0.197511	-0.424048	0.322143	-0.030318	0.387900	-0.276226	-0.523716	-0.627675	0.053583	0.534907	0.621295	0.016599	-0.818221	-0.551411	0.285849	
0.000000	103.161269	0.000000	-0.099223	0.581618	0.267938	0.053052	-0.583861	-0.390343	0.043440	0.002080	0.122956	-0.000001	0.000002	0.000000	0.	0.	0.	0.102439	-0.591199	-0.216551	0.017596	-0.004320	0.186642	-0.023518	0.013499	-0.236975	0.	0.	0.	0.096507	-0.582076	-0.266944	-0.503090	0.463617	0.143530	0.538476	-0.143156	-0.080425	-0.488042	0.187307	0.333001	0.357632	-0.609396	-0.152681	0.581345	1.539569	-0.580065	0.260974	-0.103250	-0.159932	0.214743	-0.401343	0.334961	-0.037058	0.396158	-0.270091	-0.509167	-0.634880	0.040873	0.523122	0.597134	0.007455	-0.810795	-0.525293	0.295684	
-0.000117	103.161909	-0.003355	-0.098591	0.556837	0.266526	0.052549	-0.559076	-0.388960	0.043440	0.002080	0.122956	-0.000001	0.000002	0.000000	0.	0.	0.	0.101937	-0.566413	-0.215189	0.017596	-0.004320	0.186642	-0.023518	0.013499	-0.236975	0.	0.	0.	0.096004	-0.557290	-0.265580	-0.503090	0.463617	0.143530	0.538476	-0.143156	-0.080425	-0.487625	0.171596	0.330903	0.363766	-0.602280	-0.150442	0.574890	1.548162	-0.580327	0.256060	-0.135936	-0.167684	0.234584	-0.396913	0.343700	-0.049198	0.401059	-0.263998	-0.496676	-0.637290	0.028335	0.516353	0.572944	-0.001190	-0.803945	-0.501230	0.304739	
-0.000140	103.162025	-0.004023	-0.098467	0.551921	0.266252	0.052450	-0.554160	-0.388692	0.043440	0.002080	0.122956	-0.000001	0.000002	0.000000	0.	0.	0.	0.101838	-0.561497	-0.214925	0.017596	-0.004320	0.186642	-0.023518	0.013499	-0.236975	0.	0.	0.	0.095905	-0.552374	-0.265315	-0.503090	0.463617	0.143530	0.538476	-0.143156	-0.080425	-0.486361	0.124164	0.324551	0.366055	-0.559109	-0.144270	0.573342	1.536446	-0.577072	0.251730	-0.164713	-0.174508	0.248298	-0.394900	0.350969	-0.055583	0.402470	-0.256821	-0.489360	-0.629390	0.017048	0.510453	0.551869	-0.008730	-0.797979	-0.480262	0.312631	
-0.000140	103.162025	-0.004023	-0.098467	0.551921	0.266252	0.052450	-0.554160	-0.388692	0.043440	0.002080	0.122956	-0.000001	0.000002	0.000000	0.	0.	0.	0.101838	-0.561497	-0.214925	0.017596	-0.004320	0.186642	-0.023518	0.013499	-0.236975	0.	0.	0.	0.095905	-0.552374	-0.265315	-0.503090	0.463617	0.143530	0.538476	-0.143156	-0.080425	-0.485514	0.092422	0.320297	0.365426	-0.527340	-0.140219	0.575938	1.511701	-0.571847	0.248773	-0.184328	-0.179161	0.245604	-0.399370	0.354604	-0.046964	0.401396	-0.248368	-0.492406	-0.604189	0.009695	0.505227	0.533183	-0.015426	-0.792700	-0.461670	0.319636	
-0.000140	103.162025	-0.004023	-0.098467	0.551921	0.266252	0.052450	-0.554160	-0.388692	0.043440	0.002080	0.122956	-0.000001	0.000002	0.000000	0.	0.	0.	0.101838	-0.561497	-0.214925	0.017596	-0.004320	0.186642	-0.023518	0.013499	-0.236975	0.	0.	0.	0.095905	-0.552374	-0.265315	-0.503090	0.463617	0.143530	0.538476	-0.143156	-0.080425	-0.485124	0.077917	0.318327	0.365133	-0.512819	-0.138344	0.577373	1.498139	-0.568998	0.248773	-0.184328	-0.179161	0.242759	-0.411579	0.354135	-0.042670	0.401465	-0.244272	-0.493872	-0.592041	0.006153	0.503960	0.528661	-0.017046	-0.791420	-0.457172	0.321330	
-0.000140	103.162025	-0.004023	-0.098467	0.551921	0.266252	0.052450	-0.554160	-0.388692	0.043440	0.002080	0.122956	-0.000001	0.000002	0.000000	0.	0.	0.	0.101838	-0.561497	-0.214925	0.017596	-0.004320	0.186642	-0.023518	0.013499	-0.236975	0.	0.	0.	0.095905	-0.552374	-0.265315	-0.503090	0.463617	0.143530	0.531375	-0.163154	-0.080430	-0.477503	0.077295	0.315703	0.376117	-0.507400	-0.135278	0.583558	1.463232	-0.552766	0.248773	-0.184328	-0.179161	0.262135	-0.444151	0.355630	-0.058328	0.403358	-0.236372	-0.497598	-0.561179	-0.002824	0.503960	0.528661	-0.017046	-0.791420	-0.457172	0.321330	
-0.000140	103.162025	-0.004023	-0.098467	0.551921	0.266252	0.052450	-0.554160	-0.388692	0.043440	0.002080	0.122956	-0.000001	0.000002	0.000000	0.	0.	0.	0.101838	-0.561497	-0.214925	0.017596	-0.004320	0.186642	-0.023518	0.013499	-0.236975	0.	0.	0.	0.095905	-0.552374	-0.265315	-0.503090	0.463617	0.143530	0.536333	-0.194756	-0.096144	-0.482536	0.108756	0.331697	0.392401	-0.529160	-0.134692	0.591686	1.472125	-0.544351	0.248773	-0.184328	-0.179161	0.272203	-0.446537	0.356624	-0.067281	0.396244	-0.234425	-0.498757	-0.551594	-0.005611	0.503960	0.528661	-0.017046	-0.791420	-0.457172	0.321330	
-0.000140	103.162025	-0.004023	-0.098467	0.551921	0.266252	0.052450	-0.554160	-0.388692	0.043440	0.002080	0.122956	-0.000001	0.000002	0.000000	0.	0.	0.	0.101838	-0.561497	-0.214925	0.017596	-0.004320	0.186642	-0.023518	0.013499	-0.236975	0.	0.	0.	0.095905	-0.552374	-0.265315	-0.503090	0.463617	0.143530	0.536333	-0.194756	-0.096144	-0.482536	0.108756	0.331697	0.401236	-0.540964	-0.134378	0.599225	1.484984	-0.547975	0.248773	-0.184328	-0.179161	0.272203	-0.446537	0.356624	-0.067281	0.396244	-0.234425	-0.498757	-0.551594	-0.005611	0.503960	0.528661	-0.017046	-0.791420	-0.457172	0.321330	
-0.000140	103.162025	-0.004023	-0.098467	0.551921	0.266252	0.052450	-0.554160	-0.388692	0.043440	0.002080	0.122956	-0.000001	0.000002	0.000000	0.	0.	0.	0.101838	-0.561497	-0.214925	0.017596	-0.004320	0.186642	-0.023518	0.013499	-0.236975	0.	0.	0.	0.095905	-0.552374	-0.265315	-0.503090	0.463617	0.143530	0.526713	-0.253588	-0.107126	-0.473047	0.167509	0.343131	0.430020	-0.579432	-0.133320	0.622757	1.522395	-0.613164	0.248773	-0.184328	-0.179161	0.307408	-0.454887	0.360119	-0.097827	0.364603	-0.225595	-0.503611	-0.511293	-0.017325	0.500162	0.514811	-0.022031	-0.787584	-0.443389	0.326540	
-0.000140	103.162025	-0.004023	-0.098467	0.551921	0.266252	0.052450	-0.554160	-0.388692	0.043440	0.002080	0.122956	-0.000001	0.000002	0.000000	0.	0.	0.	0.101838	-0.561497	-0.214925	0.017596	-0.004320	0.186642	-0.023518	0.013499	-0.236975	0.	0.	0.	0.095905	-0.552374	-0.265315	-0.503090	0.463617	0.143530	0.521886	-0.267163	-0.107136	-0.468246	0.181091	0.343231	0.440636	-0.593623	-0.132910	0.637889	1.537406	-0.672391	0.248773	-0.184328	-0.179161	0.307408	-0.454887	0.360119	-0.096441	0.352481	-0.221962	-0.505075	-0.499145	-0.020860	0.498933	0.510291	-0.023659	-0.786346	-0.438892	0.328240	
-0.000140	103.162025	-0.004023	-0.098467	0.551921	0.266252	0.052450	-0.554160	-0.388692	0.043440	0.002080	0.122956	-0.000001	0.000002	0.000000	0.	0.	0.	0.101838	-0.561497	-0.214925	0.017596	-0.004320	0.186642	-0.023518	0.013499	-0.236975	0.	0.	0.	0.095905	-0.552374	-0.265315	-0.503090	0.463617	0.143530	0.512746	-0.292858	-0.107159	-0.436598	0.206565	0.349554	0.453604	-0.640878	-0.137737	0.661484	1.574545	-0.794137	0.243485	-0.219424	-0.187494	0.312648	-0.419727	0.368246	-0.091100	0.305789	-0.207975	-0.510704	-0.452351	-0.034464	0.498933	0.510291	-0.023659	-0.786346	-0.438892	0.328240	
-0.000140	103.162025	-0.004023	-0.098467	0.551921	0.266252	0.052450	-0.554160	-0.388692	0.043440	0.002080	0.122956	-0.000001	0.000002	0.000000	0.	0.	0.	0.101838	-0.561497	-0.214925	0.017596	-0.004320	0.186642	-0.023518	0.013499	-0.236975	0.	0.	0.	0.095905	-0.552374	-0.265315	-0.503090	0.463617	0.143530	0.503623	-0.318512	-0.107190	-0.396762	0.231907	0.358079	0.435134	-0.656981	-0.145729	0.671206	1.602235	-0.763590	0.239213	-0.247734	-0.194211	0.316869	-0.391369	0.374790	-0.090518	0.300705	-0.206453	-0.511316	-0.447255	-0.035944	0.498933	0.510291	-0.023659	-0.779999	-0.435612	0.317277	
-0.000140	103.162025	-0.004023	-0.098467	0.551921	0.266252	0.052450	-0.554160	-0.388692	0.043440	0.002080	0.122956	-0.000001	0.000002	0.000000	0.	0.	0.	0.101838	-0.561497	-0.214925	0.017596	-0.004320	0.186642	-0.023518	0.013499	-0.236975	0.	0.	0.	0.095905	-0.552374	-0.265315	-0.503090	0.463617	0.143530	0.494258	-0.344846	-0.107222	-0.356252	0.257940	0.366688	0.409343	-0.663880	-0.154108	0.621107	1.631273	-0.678492	0.234761	-0.277227	-0.201217	0.321266	-0.361820	0.381611	-0.090518	0.300705	-0.206453	-0.511316	-0.447255	-0.035944	0.495117	0.496234	-0.028722	-0.762241	-0.414448	0.298548	
-0.000140	103.162025	-0.004023	-0.098467	0.551921	0.266252	0.052450	-0.554160	-0.388692	0.043440	0.002080	0.122956	-0.000001	0.000002	0.000000	0.	0.	0.	0.101838	-0.561497	-0.214925	0.017596	-0.004320	0.186642	-0.023518	0.013499	-0.236975	0.	0.	0.	0.095905	-0.552374	-0.265315	-0.503090	0.463617	0.143530	0.484699	-0.371723	-0.107264	-0.339415	0.284757	0.368811	0.423658	-0.692748	-0.155276	0.588630	1.663555	-0.658029	0.229602	-0.311383	-0.209334	0.326351	-0.327605	0.389508	-0.090518	0.300705	-0.206453	-0.511316	-0.447255	-0.035944	0.493833	0.491533	-0.030413	-0.745445	-0.401773	0.273552	
